<svg width="480" height="270" viewBox="0 0 480 270" fill="none" xmlns="http://www.w3.org/2000/svg">
<rect width="480" height="270" fill="#F4F2EC"/>
<rect x="191.5" y="86.5" width="98" height="98" rx="6.5" fill="#FCF669" stroke="black"/>
<path d="M307.232 133.232C306.256 134.209 306.256 135.791 307.232 136.768L323.142 152.678C324.118 153.654 325.701 153.654 326.678 152.678C327.654 151.701 327.654 150.118 326.678 149.142L312.536 135L326.678 120.858C327.654 119.882 327.654 118.299 326.678 117.322C325.701 116.346 324.118 116.346 323.142 117.322L307.232 133.232ZM349 132.5H309V137.5H349V132.5Z" fill="#FF7171"/>
<path d="M167.768 136.768C168.744 135.791 168.744 134.209 167.768 133.232L151.858 117.322C150.882 116.346 149.299 116.346 148.322 117.322C147.346 118.299 147.346 119.882 148.322 120.858L162.464 135L148.322 149.142C147.346 150.118 147.346 151.701 148.322 152.678C149.299 153.654 150.882 153.654 151.858 152.678L167.768 136.768ZM126 137.5H166V132.5H126V137.5Z" fill="#FF7171"/>
<path d="M238.232 71.7678C239.209 72.7441 240.791 72.7441 241.768 71.7678L257.678 55.8579C258.654 54.8816 258.654 53.2986 257.678 52.3223C256.701 51.346 255.118 51.346 254.142 52.3223L240 66.4645L225.858 52.3223C224.882 51.346 223.299 51.346 222.322 52.3223C221.346 53.2986 221.346 54.8816 222.322 55.8579L238.232 71.7678ZM237.5 31L237.5 70L242.5 70L242.5 31L237.5 31Z" fill="#FF7171"/>
<path d="M241.768 199.232C240.791 198.256 239.209 198.256 238.232 199.232L222.322 215.142C221.346 216.118 221.346 217.701 222.322 218.678C223.299 219.654 224.882 219.654 225.858 218.678L240 204.536L254.142 218.678C255.118 219.654 256.701 219.654 257.678 218.678C258.654 217.701 258.654 216.118 257.678 215.142L241.768 199.232ZM242.5 241L242.5 201L237.5 201L237.5 241L242.5 241Z" fill="#FF7171"/>
<path d="M221.21 136.932V136.25L226.699 133.455V134.545L222.489 136.574L222.523 136.506V136.676L222.489 136.608L226.699 138.636V139.727L221.21 136.932ZM231.302 140.136C230.757 140.136 230.275 139.999 229.858 139.723C229.44 139.445 229.113 139.053 228.877 138.547C228.642 138.038 228.524 137.438 228.524 136.744C228.524 136.057 228.642 135.46 228.877 134.955C229.113 134.449 229.441 134.058 229.862 133.783C230.282 133.507 230.768 133.369 231.319 133.369C231.745 133.369 232.082 133.44 232.329 133.582C232.579 133.722 232.77 133.881 232.9 134.06C233.034 134.236 233.137 134.381 233.211 134.494H233.297V131.273H234.302V140H233.331V138.994H233.211C233.137 139.114 233.032 139.264 232.896 139.446C232.76 139.625 232.565 139.786 232.312 139.928C232.059 140.067 231.723 140.136 231.302 140.136ZM231.439 139.233C231.842 139.233 232.183 139.128 232.461 138.918C232.74 138.705 232.951 138.411 233.096 138.036C233.241 137.658 233.314 137.222 233.314 136.727C233.314 136.239 233.243 135.811 233.1 135.445C232.958 135.075 232.748 134.788 232.47 134.584C232.191 134.376 231.848 134.273 231.439 134.273C231.012 134.273 230.657 134.382 230.373 134.601C230.092 134.817 229.88 135.111 229.738 135.483C229.599 135.852 229.529 136.267 229.529 136.727C229.529 137.193 229.6 137.616 229.743 137.997C229.887 138.375 230.1 138.676 230.382 138.901C230.666 139.122 231.018 139.233 231.439 139.233ZM236.284 140V133.455H237.289V140H236.284ZM236.795 132.364C236.599 132.364 236.43 132.297 236.288 132.163C236.149 132.03 236.079 131.869 236.079 131.682C236.079 131.494 236.149 131.334 236.288 131.2C236.43 131.067 236.599 131 236.795 131C236.991 131 237.159 131.067 237.298 131.2C237.44 131.334 237.511 131.494 237.511 131.682C237.511 131.869 237.44 132.03 237.298 132.163C237.159 132.297 236.991 132.364 236.795 132.364ZM244.484 133.455L242.063 140H241.04L238.62 133.455H239.711L241.518 138.67H241.586L243.393 133.455H244.484ZM252.271 130.864L249.459 141.312H248.538L251.351 130.864H252.271ZM259.242 136.932L253.753 139.727V138.636L257.963 136.608L257.929 136.676V136.506L257.963 136.574L253.753 134.545V133.455L259.242 136.25V136.932Z" fill="black"/>
</svg>
