<svg width="708" height="708" viewBox="0 0 708 708" fill="none" xmlns="http://www.w3.org/2000/svg">
<line x1="511.274" y1="159.583" x2="491.608" y2="183.869" stroke="white" stroke-opacity="0.2"/>
<line x1="216.28" y1="523.871" x2="196.613" y2="548.156" stroke="white" stroke-opacity="0.2"/>
<line x1="490.134" y1="144.16" x2="473.114" y2="170.368" stroke="white" stroke-opacity="0.2"/>
<line x1="234.834" y1="537.286" x2="217.814" y2="563.495" stroke="white" stroke-opacity="0.2"/>
<line x1="467.498" y1="131.03" x2="453.311" y2="158.874" stroke="white" stroke-opacity="0.2"/>
<line x1="254.69" y1="548.689" x2="240.502" y2="576.533" stroke="white" stroke-opacity="0.2"/>
<line x1="443.613" y1="120.339" x2="432.414" y2="149.513" stroke="white" stroke-opacity="0.2"/>
<line x1="275.628" y1="557.955" x2="264.429" y2="587.129" stroke="white" stroke-opacity="0.2"/>
<line x1="418.742" y1="112.202" x2="410.654" y2="142.387" stroke="white" stroke-opacity="0.2"/>
<line x1="297.42" y1="564.98" x2="289.332" y2="595.165" stroke="white" stroke-opacity="0.2"/>
<line x1="393.157" y1="106.711" x2="388.268" y2="137.576" stroke="white" stroke-opacity="0.2"/>
<line x1="319.828" y1="569.69" x2="314.939" y2="600.555" stroke="white" stroke-opacity="0.2"/>
<line x1="367.137" y1="103.923" x2="365.502" y2="135.13" stroke="white" stroke-opacity="0.2"/>
<line x1="342.605" y1="572.031" x2="340.969" y2="603.238" stroke="white" stroke-opacity="0.2"/>
<line x1="340.969" y1="103.871" x2="342.605" y2="135.078" stroke="white" stroke-opacity="0.2"/>
<line x1="365.502" y1="571.979" x2="367.137" y2="603.186" stroke="white" stroke-opacity="0.2"/>
<line x1="314.939" y1="106.554" x2="319.827" y2="137.419" stroke="white" stroke-opacity="0.2"/>
<line x1="388.267" y1="569.534" x2="393.156" y2="600.399" stroke="white" stroke-opacity="0.2"/>
<line x1="289.332" y1="111.944" x2="297.42" y2="142.129" stroke="white" stroke-opacity="0.2"/>
<line x1="410.653" y1="564.722" x2="418.741" y2="594.907" stroke="white" stroke-opacity="0.2"/>
<line x1="264.428" y1="119.98" x2="275.627" y2="149.154" stroke="white" stroke-opacity="0.2"/>
<line x1="432.413" y1="557.596" x2="443.612" y2="586.771" stroke="white" stroke-opacity="0.2"/>
<line x1="240.501" y1="130.576" x2="254.688" y2="158.42" stroke="white" stroke-opacity="0.2"/>
<line x1="453.309" y1="548.236" x2="467.496" y2="576.079" stroke="white" stroke-opacity="0.2"/>
<line x1="217.812" y1="143.615" x2="234.832" y2="169.823" stroke="white" stroke-opacity="0.2"/>
<line x1="473.112" y1="536.742" x2="490.132" y2="562.95" stroke="white" stroke-opacity="0.2"/>
<line x1="196.611" y1="158.954" x2="216.277" y2="183.239" stroke="white" stroke-opacity="0.2"/>
<line x1="491.605" y1="523.241" x2="511.271" y2="547.527" stroke="white" stroke-opacity="0.2"/>
<line x1="159.58" y1="195.836" x2="183.866" y2="215.502" stroke="white" stroke-opacity="0.2"/>
<line x1="523.868" y1="490.83" x2="548.153" y2="510.497" stroke="white" stroke-opacity="0.2"/>
<line x1="144.156" y1="216.976" x2="170.365" y2="233.996" stroke="white" stroke-opacity="0.2"/>
<line x1="537.283" y1="472.276" x2="563.492" y2="489.296" stroke="white" stroke-opacity="0.2"/>
<line x1="131.027" y1="239.613" x2="158.871" y2="253.8" stroke="white" stroke-opacity="0.2"/>
<line x1="548.687" y1="452.421" x2="576.531" y2="466.608" stroke="white" stroke-opacity="0.2"/>
<line x1="120.336" y1="263.497" x2="149.51" y2="274.696" stroke="white" stroke-opacity="0.2"/>
<line x1="557.952" y1="431.482" x2="587.126" y2="442.681" stroke="white" stroke-opacity="0.2"/>
<line x1="112.2" y1="288.368" x2="142.385" y2="296.456" stroke="white" stroke-opacity="0.2"/>
<line x1="564.978" y1="409.69" x2="595.163" y2="417.778" stroke="white" stroke-opacity="0.2"/>
<line x1="106.708" y1="313.954" x2="137.573" y2="318.843" stroke="white" stroke-opacity="0.2"/>
<line x1="569.687" y1="387.283" x2="600.552" y2="392.171" stroke="white" stroke-opacity="0.2"/>
<line x1="103.921" y1="339.974" x2="135.128" y2="341.609" stroke="white" stroke-opacity="0.2"/>
<line x1="572.029" y1="364.506" x2="603.236" y2="366.142" stroke="white" stroke-opacity="0.2"/>
<line x1="103.869" y1="366.142" x2="135.075" y2="364.506" stroke="white" stroke-opacity="0.2"/>
<line x1="571.977" y1="341.609" x2="603.184" y2="339.974" stroke="white" stroke-opacity="0.2"/>
<line x1="106.552" y1="392.172" x2="137.417" y2="387.284" stroke="white" stroke-opacity="0.2"/>
<line x1="569.531" y1="318.844" x2="600.396" y2="313.955" stroke="white" stroke-opacity="0.2"/>
<line x1="111.941" y1="417.779" x2="142.126" y2="409.691" stroke="white" stroke-opacity="0.2"/>
<line x1="564.72" y1="296.458" x2="594.905" y2="288.37" stroke="white" stroke-opacity="0.2"/>
<line x1="119.978" y1="442.683" x2="149.152" y2="431.484" stroke="white" stroke-opacity="0.2"/>
<line x1="557.594" y1="274.698" x2="586.768" y2="263.499" stroke="white" stroke-opacity="0.2"/>
<line x1="130.574" y1="466.61" x2="158.417" y2="452.423" stroke="white" stroke-opacity="0.2"/>
<line x1="548.233" y1="253.802" x2="576.077" y2="239.614" stroke="white" stroke-opacity="0.2"/>
<line x1="143.612" y1="489.298" x2="169.821" y2="472.279" stroke="white" stroke-opacity="0.2"/>
<line x1="536.74" y1="233.999" x2="562.948" y2="216.979" stroke="white" stroke-opacity="0.2"/>
<line x1="158.951" y1="510.5" x2="183.237" y2="490.833" stroke="white" stroke-opacity="0.2"/>
<line x1="523.239" y1="215.505" x2="547.524" y2="195.839" stroke="white" stroke-opacity="0.2"/>
<rect x="353.553" y="0.707107" width="499" height="499" rx="249.5" transform="rotate(45 353.553 0.707107)" stroke="white" stroke-opacity="0.2"/>
<path d="M141.264 565.528L565.843 141.579" stroke="white" stroke-opacity="0.2"/>
<path d="M141.579 141.264L565.528 565.843" stroke="white" stroke-opacity="0.2"/>
<rect x="353.553" y="142.128" width="299" height="299" rx="149.5" transform="rotate(45 353.553 142.128)" stroke="white" stroke-opacity="0.2"/>
<rect x="353.553" y="212.839" width="199" height="199" rx="99.5" transform="rotate(45 353.553 212.839)" stroke="white" stroke-opacity="0.2"/>
</svg>
