<svg width="200" height="200" viewBox="0 0 200 200" fill="none" xmlns="http://www.w3.org/2000/svg">
<rect width="200" height="200" fill="#E5E7EB"/>
<path d="M23.4375 139.375L15.625 41.7188H109.375L101.562 139.375L62.5 151.094L23.4375 139.375Z" fill="#E44D26"/>
<path d="M101.562 49.5312H62.5V145.234L93.75 135.469L101.562 49.5312Z" fill="#F16529"/>
<path d="M37.1094 98.3594L33.2031 61.25H93.75L91.7969 72.9688H44.9219L46.875 86.6406H89.8438L85.9375 123.75L62.5 131.562L39.0625 123.75L37.1094 104.219H48.8281L50.7812 113.984L62.5 117.891L74.2188 113.984L76.1719 98.3594H37.1094Z" fill="white"/>
<path d="M98.4375 154.375L90.625 56.7188H184.375L176.562 154.375L137.5 166.094L98.4375 154.375Z" fill="#1172B8"/>
<path d="M176.562 64.5312H137.5V160.234L168.75 150.469L176.562 64.5312Z" fill="#33AADD"/>
<path d="M151.172 113.359H112.109L110.156 99.6875L141.406 89.9219H110.156L108.203 78.2031H168.75L166.797 91.875L141.406 101.641H164.844L160.938 138.75L137.5 146.562L114.062 138.75L112.109 119.219H123.828L125.781 128.984L137.5 132.891L149.219 128.984L151.172 113.359Z" fill="white"/>
</svg>
