<svg width="200" height="200" viewBox="0 0 200 200" fill="none" xmlns="http://www.w3.org/2000/svg">
<rect width="200" height="200" fill="#E5E7EB"/>
<g clip-path="url(#clip0_2_38)">
<path d="M33 32H168V167H33V32Z" fill="#F7DF1E"/>
<path d="M68.4964 144.816L78.8276 138.564C80.8206 142.097 82.6337 145.087 86.9826 145.087C91.1514 145.087 93.7796 143.457 93.7796 137.114V93.9781H106.466V137.293C106.466 150.433 98.7639 156.414 87.5265 156.414C77.3777 156.414 71.4866 151.158 68.4962 144.815" fill="black"/>
<path d="M113.357 143.456L123.687 137.476C126.406 141.916 129.941 145.178 136.193 145.178C141.45 145.178 144.802 142.55 144.802 138.925C144.802 134.576 141.358 133.035 135.558 130.498L132.388 129.138C123.234 125.242 117.163 120.349 117.163 110.018C117.163 100.503 124.412 93.2527 135.74 93.2527C143.805 93.2527 149.605 96.0622 153.773 103.403L143.895 109.746C141.72 105.849 139.365 104.309 135.74 104.309C132.025 104.309 129.669 106.665 129.669 109.746C129.669 113.552 132.025 115.093 137.462 117.449L140.633 118.808C151.417 123.43 157.489 128.142 157.489 138.744C157.489 150.163 148.517 156.415 136.465 156.415C124.685 156.415 117.072 150.797 113.357 143.456Z" fill="black"/>
</g>
<defs>
<clipPath id="clip0_2_38">
<rect width="135" height="135" fill="white" transform="translate(33 32)"/>
</clipPath>
</defs>
</svg>
