<svg width="200" height="200" viewBox="0 0 200 200" fill="none" xmlns="http://www.w3.org/2000/svg">
<rect width="200" height="200" fill="#E5E7EB"/>
<path d="M167.924 62.44C167.974 62.6253 168 62.8163 168 63.0082V92.8391C168 93.6184 167.583 94.3382 166.907 94.7259L141.869 109.141V137.713C141.869 138.491 141.456 139.208 140.782 139.6L88.5182 169.686C88.3986 169.754 88.2681 169.798 88.1376 169.844C88.0886 169.86 88.0424 169.89 87.9907 169.904C87.6254 170 87.2414 170 86.876 169.904C86.8162 169.888 86.7618 169.855 86.7047 169.833C86.5851 169.79 86.46 169.752 86.3459 169.686L34.093 139.6C33.4173 139.212 33 138.492 33 137.713V48.2206C33 48.0249 33.0272 47.8345 33.0761 47.6497C33.0924 47.5871 33.1305 47.53 33.1523 47.4675C33.193 47.3533 33.2311 47.2364 33.2909 47.1304C33.3317 47.0597 33.3915 47.0026 33.4404 46.9373C33.503 46.8503 33.5601 46.7606 33.6335 46.6845C33.696 46.622 33.7776 46.5757 33.8483 46.5214C33.9271 46.4561 33.9978 46.3854 34.0875 46.3338H34.0902L60.218 31.2906C60.8913 30.9031 61.7198 30.9031 62.3931 31.2906L88.5209 46.3338H88.5263C88.6133 46.3881 88.6868 46.4561 88.7656 46.5186C88.8363 46.573 88.9151 46.622 88.9777 46.6818C89.0538 46.7606 89.1082 46.8503 89.1734 46.9373C89.2196 47.0026 89.2822 47.0597 89.3202 47.1304C89.3828 47.2391 89.4181 47.3533 89.4616 47.4675C89.4834 47.53 89.5214 47.5871 89.5377 47.6524C89.5878 47.8377 89.6134 48.0287 89.6139 48.2206V104.117L111.386 91.5803V63.0055C111.386 62.8152 111.413 62.6222 111.462 62.44C111.481 62.3748 111.517 62.3177 111.538 62.2551C111.582 62.1409 111.62 62.024 111.68 61.918C111.721 61.8473 111.78 61.7902 111.827 61.725C111.892 61.638 111.946 61.5482 112.022 61.4721C112.085 61.4096 112.164 61.3634 112.234 61.309C112.316 61.2437 112.387 61.173 112.474 61.1214H112.476L138.607 46.0782C139.28 45.6902 140.109 45.6902 140.782 46.0782L166.91 61.1214C167.002 61.1758 167.073 61.2437 167.154 61.3063C167.222 61.3606 167.301 61.4096 167.364 61.4694C167.44 61.5482 167.494 61.638 167.56 61.725C167.608 61.7902 167.668 61.8473 167.706 61.918C167.769 62.024 167.804 62.1409 167.848 62.2551C167.872 62.3177 167.908 62.3748 167.924 62.44ZM163.644 91.5803V66.7738L154.501 72.0374L141.869 79.3103V104.117L163.647 91.5803H163.644ZM137.517 136.454V111.632L125.092 118.728L89.6111 138.977V164.034L137.517 136.454ZM37.3555 51.9862V136.454L85.2556 164.031V138.98L60.2316 124.818L60.2235 124.812L60.2126 124.807C60.1283 124.758 60.0576 124.687 59.9788 124.627C59.9108 124.573 59.832 124.53 59.7722 124.47L59.7667 124.462C59.696 124.394 59.6471 124.309 59.5873 124.233C59.5329 124.16 59.4677 124.097 59.4242 124.021L59.4214 124.013C59.3725 123.931 59.3426 123.834 59.3072 123.741C59.2719 123.66 59.2257 123.583 59.2039 123.496V123.494C59.1767 123.39 59.1713 123.282 59.1604 123.176C59.1496 123.094 59.1278 123.012 59.1278 122.931V122.925V64.5226L46.4989 57.2471L37.3555 51.9889V51.9862ZM61.3083 35.6896L39.5387 48.2206L61.3029 60.7516L83.0697 48.2179L61.3029 35.6896H61.3083ZM72.6294 113.894L85.2583 106.623V51.9862L76.115 57.2498L63.4833 64.5226V119.16L72.6294 113.894ZM139.694 50.4772L117.928 63.0082L139.694 75.5393L161.459 63.0055L139.694 50.4772ZM137.517 79.3103L124.885 72.0374L115.742 66.7738V91.5803L128.371 98.8504L137.517 104.117V79.3103ZM87.4307 135.212L119.358 116.985L135.317 107.877L113.567 95.354L88.5236 109.772L65.6992 122.912L87.4307 135.212Z" fill="#FF2D20"/>
</svg>
