<svg width="3302" height="3302" viewBox="0 0 3302 3302" fill="none" xmlns="http://www.w3.org/2000/svg">
<rect width="3302" height="3302" fill="#e9e4ce"/>
<path fill-rule="evenodd" clip-rule="evenodd" d="M1946.81 1635.06C1947.74 1639.69 1949.15 1644.71 1950.62 1649.2C1943.31 1656.23 1932.97 1665.66 1925.56 1672.46C1932.89 1627.14 1910.57 1585.31 1896.9 1542.43C1902.06 1535.82 1920.01 1529.06 1919.43 1521.73C1918.04 1494.59 1916 1464.29 1913.05 1430.3C1903.08 1324.17 1893.15 1213.49 1916.7 1107.03C1918.31 1095.46 1920.75 1083.29 1936.27 1083.02C1982.11 1265.46 1944.96 1449.14 1945.97 1632.73L1944.64 1633.93L1946.81 1635.06ZM2015.45 3129.84C2053.12 3129.85 2087.74 3123.01 2121.26 3109.14C2130.93 3105.74 2142.95 3101.51 2144.62 3094.67C2147.38 3075.93 2145.47 3057.51 2143.45 3038.01C2140.26 3004.56 2140.58 2978.56 2131.55 2942.55C2121.89 2909.1 2113.66 2882.97 2123.09 2848.38C2123.84 2838.09 2115.79 2827.61 2110.47 2817.98C2102.94 2803.93 2099.12 2789.3 2093.14 2774.88C2104.89 2772.83 2117.09 2770.01 2128.37 2766.52L2130.27 2773.34C2130.68 2774.84 2131.83 2775.6 2133.67 2775.6C2134.81 2775.6 2137.73 2775.05 2138.16 2772.61C2136.39 2746.28 2133.82 2720.07 2131.13 2693.32C2103.17 2435.59 2060.83 2223.13 1989.72 2011.23C1972.65 1961.61 1955.2 1909.95 1955.08 1856.03C1964.79 1853.95 1975.6 1852.75 1985.5 1854.12C2056 1837.78 2042.07 1688.63 2039.26 1644C2044.23 1642.5 2049.8 1640.39 2053.93 1637.56L2055.59 1638.37C2125.61 1464.61 2096.86 1177.32 2080.84 984.187C2070.33 914.764 2085.11 789.36 2023.56 755.054C1973.86 737.454 1924.38 727.562 1872.44 715.955C1862.83 710.434 1850.96 707.283 1840.22 703.71L1845.77 695.916C1853.04 685.671 1852.07 665.577 1842.56 658.516C1836.72 658.84 1828.5 664.711 1822.92 667.468C1814.88 650.854 1807.44 633.476 1802.11 613.513L1800.19 614.2C1794.57 557.734 1721.35 547.879 1680.07 566.748C1635.01 591.486 1658.48 647.448 1637.99 687.846L1630.56 677.947C1619.09 677.735 1594.84 692.769 1589 698.412C1584.81 700.361 1587.84 713.48 1587.23 718.757C1526.77 732.445 1444.02 736.203 1424.81 804.057C1392.84 931.65 1397.33 1062.46 1361.06 1189.6C1323.08 1292.65 1267.31 1418.76 1266.84 1513.14C1265.75 1530.83 1263.37 1630.88 1278.02 1626.86L1287.68 1636.5C1274.51 1657.51 1284.97 1688.96 1290.01 1713.84C1302.44 1766.63 1326.72 1823.52 1378.58 1798.22C1434.37 2106.23 1574.57 2416.94 1526.74 2734.64C1526.17 2736.49 1527.33 2738.53 1529.32 2737.72L1531.67 2736.63C1537.76 2738.51 1545.48 2739.17 1551.83 2740.59C1546.42 2760.85 1543.52 2780.85 1540.72 2803.26C1537.32 2805.29 1538.9 2810.65 1538.73 2813.9C1487.98 2811.47 1459.51 2864.61 1423.12 2893.84C1399.09 2915.28 1371.72 2935.69 1341.77 2954.51C1317.02 2968.57 1296.13 2984.67 1299.89 3011.24C1299.54 3011.19 1291.9 3010.01 1291.52 3009.98C1280.01 3048.29 1317.81 3056.21 1356.75 3060.82C1451.88 3070.39 1533.21 3049.25 1643.36 3009.19C1656.87 3010.8 1667.4 2990.71 1669.19 2977.09C1670.97 2967.97 1665.91 2958.69 1669.77 2948.86C1683.06 2920.64 1689.97 2845.93 1671.24 2812.42C1664.67 2804.82 1656.24 2797.81 1657.33 2784.7C1657.64 2771.56 1658.88 2758.44 1657.76 2745.54C1680.27 2743.36 1702.55 2738.51 1722.19 2730.65C1725.67 2731.99 1729.61 2730.34 1729.86 2725.98C1733.62 2665.93 1738.13 2600.31 1739.11 2538.83C1743.63 2405.03 1713.04 2274.47 1689.62 2144.7C1687.99 2103.07 1680.31 2062.86 1677.89 2021.21C1675.28 1981.71 1674.82 1943.04 1672.55 1903.6L1686.07 1900.66C1798.26 2189.91 1886.12 2479.4 1947.62 2762.66C1946.23 2763.85 1942.28 2765.18 1942.44 2767.6C1942.49 2768.89 1942.46 2768.97 1943.34 2769.1C1958.2 2772.09 1972.9 2774.28 1987.62 2775.98C1983.47 2811.33 2005.62 2852.18 1986.02 2885.29C1980.81 2893.27 1980.59 2894.93 1983.78 2900.42C1955.23 2953.56 1937.53 2997.78 1926.06 3045.29L1918.68 3039.04C1907.96 3046.82 1907.74 3061.52 1907.51 3077.05C1908.27 3086.1 1903.85 3095.58 1910.62 3103.2C1926.91 3122.24 1983.7 3129.73 2015.45 3129.84V3129.84Z" fill="white"/>
<path fill-rule="evenodd" clip-rule="evenodd" d="M1288.44 1661.45C1299.64 1699.11 1309.92 1754.86 1338.43 1782.58C1347.63 1789.91 1358.85 1786.7 1369.39 1784.88C1362.16 1741.08 1356.86 1696.9 1352.25 1652.73C1329.8 1648.12 1308.16 1640.15 1288.06 1629.15C1282.62 1638.27 1286.02 1652.14 1288.44 1661.45V1661.45ZM1374.83 1694.23C1412.73 2040.59 1588.27 2372.61 1539.03 2726.71C1598.08 2736.79 1658.14 2740.99 1717.9 2735.78C1710.71 2626.4 1733.96 2506.65 1717.24 2393.86C1706.55 2288.12 1678.7 2184.86 1669.11 2079C1664.85 2020.49 1659.53 1959.39 1673.42 1901.91C1673.53 1901.62 1673.65 1901.33 1673.77 1901.04C1664.26 1892.22 1655.27 1882.58 1647.34 1872.25C1640.58 1863.32 1655.3 1851.42 1662.8 1859.08C1652.46 1831.75 1642.51 1804.29 1632.87 1776.71C1782 2077.66 1877.52 2428.18 1957.95 2760.81C2012.05 2773.13 2067.73 2772.83 2122.85 2771.35C2107.75 2521 2057.6 2274.34 1989.57 2033.33C1974.35 1977.61 1955.57 1920.93 1958.92 1862.4C1941.17 1865.17 1916.87 1855.27 1907.3 1840.08C1898.59 1846.85 1887.91 1838.54 1883.32 1830.65C1872.72 1809.96 1878.58 1784.69 1884.72 1763.48C1863.07 1766.89 1835.96 1746.81 1850.77 1724.37C1873.67 1704.29 1899.79 1687.18 1922.23 1666.02C1924.15 1626.34 1908.78 1589.31 1894.81 1552.08C1824.25 1601.81 1755.08 1655.32 1680.99 1699.22C1668.25 1700.51 1657.96 1690.87 1648.39 1683.83C1621.1 1663.58 1593.56 1643.6 1566.67 1622.8C1563.72 1623.89 1560.33 1623.62 1557.82 1621.94C1540.65 1640.33 1522.5 1657.32 1505.51 1675.8C1495.31 1685.23 1487.94 1699.96 1473.69 1703.57C1467.03 1704.79 1462.79 1702.03 1458.52 1697.41C1432.61 1669.99 1404.73 1644.53 1377.88 1618.05C1375.76 1620.69 1371.3 1621.88 1368.03 1619.78C1368.37 1644.64 1371.92 1669.52 1374.83 1694.23V1694.23ZM1553.72 2811.15C1578.5 2818.3 1582.42 2857 1611.59 2853.22C1630.48 2849.24 1645.71 2832.88 1650.55 2814.48C1649.1 2813.56 1648.12 2811.95 1648.27 2809.63C1649.51 2790.76 1650.76 2771.89 1652 2753.02C1619.18 2754.84 1586.22 2752.25 1553.62 2747.75C1554.8 2756.71 1555.27 2765.75 1555.53 2774.88C1555.07 2786.49 1558.47 2800.5 1553.72 2811.15V2811.15ZM1663.15 2802.66C1662.34 2801.49 1661.6 2800.28 1660.97 2798.98C1660.87 2800.48 1660.77 2801.98 1660.68 2803.47C1661.46 2803 1662.29 2802.74 1663.15 2802.66V2802.66ZM1497.53 2833.2C1480.69 2844.67 1467.57 2861.01 1453.23 2875.28C1422.73 2905.64 1388.91 2932.68 1352.7 2955.92C1333.85 2967.64 1294 2985.37 1309.78 3012.88C1321.55 3030.21 1352.39 3022.13 1357.25 3031.85C1424.36 3034.61 1490 3016.26 1553.78 2997.47C1586.16 2986.89 1620.04 2980.72 1651.43 2967.27C1681.52 2940.91 1681.62 2882.95 1677.48 2845.78C1675.83 2836.99 1673.39 2800.99 1660.54 2805.52C1660.52 2809.12 1660.15 2813.97 1656.26 2814.98C1656.2 2815.26 1656.15 2815.55 1656.08 2815.83C1656.82 2815.59 1657.8 2816.13 1657.44 2817.02C1647.76 2845.84 1615.85 2878.29 1584.7 2858.09C1570.86 2848.35 1564.8 2829.5 1548.3 2823.39C1531.01 2816.98 1512.08 2823.29 1497.53 2833.2V2833.2ZM1294.26 3011.04C1293.83 3011.25 1293.38 3011.35 1292.92 3011.36C1291.6 3014.74 1292.25 3028.51 1292.5 3030.88C1296.57 3051.6 1329.2 3055.04 1346.49 3058.17C1407.27 3067.75 1469.08 3061.06 1528.36 3045.78C1557.3 3038.61 1586.08 3030.32 1614.17 3020.33C1639.13 3012.74 1670 3000.12 1666.9 2968.46C1653 2987.24 1608.51 2992.8 1586.18 3000.56C1516.03 3021.86 1444.86 3044.79 1370.82 3045.52C1359.61 3045.04 1344.11 3048.17 1335.69 3039.72C1317.85 3037.17 1299.34 3027.29 1294.26 3011.04V3011.04ZM1995.14 2806.88C2000.89 2825.03 2007.49 2843.67 2007.67 2862.87C2041.13 2842.99 2083.09 2862.29 2110.81 2884.06C2108.88 2870.47 2117.26 2857.67 2114.98 2844.31C2106.51 2824.16 2095.15 2803.73 2099.18 2780.95C2062.06 2787.29 2024.35 2786.9 1987.1 2783.01C1990.02 2790.87 1992.54 2798.87 1995.14 2806.88V2806.88ZM1982.34 2917.31C1975.75 2930.25 1971.13 2947.41 1958.48 2955.57C1951.43 2981.66 1943.5 3007.51 1937.36 3033.83C1934.93 3046.36 1931.24 3059.33 1933.06 3072.23C1935.96 3073.03 1937.99 3073.65 1939.59 3075.74C2000.92 3088.81 2068.34 3090.87 2125.02 3060.51C2144.04 3017.99 2129.11 2968.2 2122.64 2924.16C2122.25 2909.74 2112.61 2904.69 2111.46 2890.94C2081.06 2873.44 2033.7 2850.49 2004.87 2881.88C2000.87 2890.79 1998.18 2903.08 1987.88 2906.45C1985.96 2910.05 1984.13 2913.68 1982.34 2917.31V2917.31ZM1932.09 3072.27C1932.1 3072.29 1932.11 3072.31 1932.14 3072.34C1932.23 3072.33 1932.23 3072.3 1932.09 3072.27V3072.27ZM1913.02 3080.19C1913.17 3077.52 1914.5 3074.86 1916.68 3073.28C1915.65 3063.45 1917.6 3053.28 1919.68 3043.68C1909.38 3054.9 1913.78 3072.66 1912.08 3086.63C1912.22 3092.2 1909.52 3099.3 1915.99 3102.17C1936.21 3116.15 1960.72 3122.67 1984.88 3125.48C2037.59 3131.52 2092.39 3121.83 2139.48 3097.32C2145.88 3088.64 2143.67 3066.36 2144.4 3055.14C2140.06 3091.16 2052.23 3101.12 2022.36 3101.42C2005.75 3101.53 1913.2 3098.09 1913.02 3080.19V3080.19ZM1968.71 1839.89C1975.72 1839.19 1982.69 1839.68 1989.63 1840.68C2030.71 1812.77 2037.19 1698.28 2043.63 1649.95C2014.24 1657.46 1983.11 1655.44 1954.57 1645.55C1954.04 1650.82 1948.02 1653.54 1944.36 1649.98C1925.01 1684.43 1896.06 1712.01 1866.19 1736.66C1866.54 1735.51 1866.79 1737.62 1866.35 1736.82C1870.16 1745.54 1884.13 1741.02 1890.73 1747.09C1894.97 1750.25 1895.86 1755.78 1893.16 1759.47C1900.31 1779.22 1888.95 1803.34 1899.64 1822.07C1902.05 1824.86 1905.17 1826.87 1907.24 1830C1921.48 1820.25 1934.45 1840.88 1948.86 1841.78C1948.76 1841.78 1948.66 1841.78 1948.55 1841.77C1950.77 1842.02 1954.33 1841.9 1956.28 1841.62C1960.42 1840.98 1964.54 1840.31 1968.71 1839.89V1839.89ZM1942.23 1149.78C1939.21 1130.09 1935.69 1110.52 1931.12 1091.14C1925.61 1092.1 1924.38 1104.72 1923.68 1108.44C1900.09 1215.18 1910.31 1325.03 1920.41 1432.76C1922.86 1461.65 1924.88 1490.59 1926.46 1519.55C1928.5 1532.87 1913.19 1537.39 1905.01 1544.68C1916.38 1581.29 1936 1616.71 1933.68 1655.7C1936.73 1652.9 1939.75 1650.07 1942.75 1647.22C1941.99 1644.77 1941.34 1642.32 1940.79 1639.85C1937.06 1637.91 1935.87 1632.54 1939.07 1629.71C1937.84 1470.06 1967.8 1309.05 1942.23 1149.78V1149.78ZM1648.7 848.273C1643.03 838.182 1628.02 851.296 1637.45 858.613C1644.01 863.929 1653.11 855.199 1648.7 848.273V848.273ZM1620.95 965.656C1614.89 957.78 1602.75 966.9 1608.04 975.042C1614.22 987.883 1626.6 975.199 1620.95 965.656V965.656ZM1601.51 1068.53C1589.38 1068.57 1592.16 1089.12 1603.61 1086.3C1613.36 1084 1611.75 1068.34 1601.51 1068.53V1068.53ZM1591.57 1192.48C1588.76 1182.97 1574.4 1185.48 1574.5 1195.26C1574.86 1208.47 1594.41 1204.48 1591.57 1192.48V1192.48ZM1568.03 1312C1564.04 1300.05 1548.69 1306.24 1549.98 1317.81C1548.31 1324.5 1561.26 1337.99 1563.89 1327.06C1567.39 1322.84 1569.04 1317.42 1568.03 1312V1312ZM1543.93 1449.85C1543.9 1449.81 1543.87 1449.77 1543.84 1449.73C1535.3 1453.75 1542.69 1472.04 1550.92 1465.32C1558.9 1460.45 1553.38 1445 1543.93 1449.85V1449.85ZM1532.7 1561.76C1522.74 1571.55 1538.14 1587.05 1547.96 1577.02C1557.93 1567.25 1542.54 1551.76 1532.7 1561.76V1561.76ZM1286.13 1628.1C1286 1628.39 1285.86 1628.68 1285.7 1628.95C1285.96 1628.73 1286.22 1628.51 1286.48 1628.29C1286.37 1628.23 1286.25 1628.17 1286.13 1628.1V1628.1ZM1278.12 1400.59C1294.37 1336.56 1320.52 1275.61 1345.97 1214.85C1373.48 1134.18 1381.55 1048.74 1391.37 964.553C1396.78 917.057 1402.62 869.624 1413.56 823.022C1422.86 736.15 1511.09 726.679 1580.27 713.213C1580.18 705.795 1577.9 697.357 1585.33 692.613C1592.16 685.676 1628.62 664.117 1635.82 673.243C1638.65 666.365 1640.03 658.733 1641.37 651.392C1642.27 648.495 1642.65 638.503 1645.79 638.582C1646.47 658.141 1654.76 686.773 1638.11 701.463C1648.11 716.696 1656.44 735.153 1669.61 747.283C1669.6 747.272 1669.59 747.263 1669.58 747.253C1670.24 747.682 1670.91 748.072 1671.6 748.442C1671.44 748.312 1672.39 748.663 1673.17 748.913C1674.96 749.254 1677.92 748.599 1679.75 747.772H1679.73C1725.09 721.992 1769.48 694.383 1813.38 666.102C1807.11 656.818 1798.98 611.309 1806.77 605.002C1812.22 622.955 1817.89 640.968 1826.15 657.862C1833.31 653.954 1844.9 646.926 1850.93 656.112C1858.54 668.876 1860.72 687.382 1851.58 700.072C1890.84 715.54 1933.17 720.956 1973.69 733.044C1991.35 737.572 2010.05 740.942 2026.62 748.793C2076 776.189 2076.04 843.687 2081.46 893.401C2095.35 1135.39 2139.43 1385.55 2070.41 1622.93C2067.75 1630.22 2063.83 1637.22 2060.78 1644.39C2059.57 1647.23 2056.43 1647.14 2054.36 1645.6C2052.02 1646.99 2049.45 1648.1 2046.76 1649C2051.28 1710.72 2057.41 1823.47 1997.84 1860.27C1993.19 1862.46 1989.03 1861.7 1984.7 1861.16C1977.75 1860.26 1969.52 1860.56 1962.32 1861.91C1971.01 1976.4 2028.66 2081 2050.98 2193.18C2098.82 2382.87 2129.73 2576.76 2145.28 2771.73C2145.84 2783.82 2126.91 2787.17 2123.63 2775.31C2116.79 2777.29 2109.85 2778.94 2102.82 2780.28C2106.49 2789.84 2109.53 2799.5 2113.76 2808.82C2118.38 2819.35 2126.79 2829.05 2129.43 2840.32C2132.59 2858.38 2120.84 2875.28 2127.36 2893.35C2128.59 2913.55 2137.77 2932.56 2140.96 2952.57C2145.94 2977.36 2149.72 3003.04 2148.42 3028.38C2153.58 3046.92 2153.33 3066.14 2152.61 3084.92C2152.23 3091.09 2152.55 3098.9 2147.87 3103.65C2137.55 3111.91 2123.74 3115.43 2111.69 3120.59C2046.74 3141.87 1965.85 3147.83 1906.26 3109.41C1894.92 3100.41 1902.01 3078.22 1901.13 3065.06C1900.73 3055.02 1908.52 3027.23 1922.18 3032.84C1934.15 2986.46 1953.59 2942.52 1976.02 2900.4C1972.44 2894.07 1976.36 2887.86 1979.84 2882.52C1997.1 2855.96 1978.47 2813.58 1980.53 2782.25C1967.65 2780.68 1954.82 2778.6 1942.08 2776.06C1933.37 2774.32 1934.01 2763.49 1939.86 2759.52C1876.26 2467.75 1787.64 2181.64 1679.65 1903.29C1681.18 1933.6 1682.43 1963.88 1683.44 1994.24C1684.79 2044.63 1694.38 2094.27 1696.73 2144.53C1720.54 2274.92 1750.77 2405.55 1746.22 2539.04C1745.19 2601.55 1740.88 2663.99 1736.96 2726.36C1736.63 2733.54 1730.22 2739.6 1722.85 2738.03C1704.41 2745.13 1684.92 2749.59 1665.21 2751.84C1667.22 2774.64 1656.88 2791.05 1676.84 2808.16C1694.31 2835.44 1690.18 2891.22 1685.56 2922.88C1683.49 2932.97 1679.94 2942.21 1676.29 2951.78C1673.53 2960.47 1678.27 2969.13 1676.25 2978.04C1674.27 2994.19 1661.05 3018.68 1642.55 3016.23C1537 3056.2 1414.71 3092.45 1303.68 3055.23C1295.96 3051.38 1287.91 3046.41 1285.14 3037.78C1282.78 3030.08 1279.59 3000.93 1292.92 3003.18C1294.39 2963.68 1340.23 2951.23 1366.36 2929.98C1402.86 2904.92 1435.07 2874.47 1465.57 2842.54C1483.16 2824.43 1505.25 2807.38 1531.65 2807.28C1531.58 2804.5 1532.43 2802.04 1534.18 2800.1L1534.19 2800.09C1536.5 2782.16 1538.99 2763.77 1543.36 2746.19C1539.71 2745.5 1535.93 2745.19 1532.36 2744.17C1525.26 2747.36 1518.31 2740.94 1519.93 2733.66C1531.97 2657.1 1532.12 2579.14 1525.03 2502.1C1503.21 2265.09 1416.9 2040.64 1373.32 1807.67C1315.54 1828.31 1294.06 1758.32 1283.29 1715.49C1278.1 1689.4 1266.91 1657.28 1281.86 1632.87C1238.13 1650.31 1267.2 1424.28 1278.12 1400.59V1400.59Z" fill="black"/>
<path fill-rule="evenodd" clip-rule="evenodd" d="M1559.47 441.003C1561.62 422.088 1558.84 382.552 1558.65 380.15C1557.47 364.965 1564.59 305.002 1578.04 310.527C1600.6 292.666 1630.65 288.722 1658.75 286.838C1717.12 282.924 1779.21 291.909 1824.28 331.189C1846.57 351.588 1868.27 381.257 1866.52 412.149C1886.77 441.431 1915.32 481.598 1890.09 515.831C1881.51 526.768 1867.88 530.841 1857.11 539.124C1835.44 556.604 1821.84 581.69 1799.96 599.066C1742 651.149 1643.59 662.029 1586.64 602.789C1542.61 559.885 1549.73 495.699 1557.47 441.003C1562.68 404.23 1555.27 477.904 1559.47 441.003Z" fill="white"/>
<path fill-rule="evenodd" clip-rule="evenodd" d="M1736.72 206.625C1721.11 203.475 1705.08 201.515 1689.14 202.105L1687.91 202.153C1675.92 202.632 1660.73 203.693 1650.26 210.667C1649.66 210.063 1648.69 209.753 1647.82 210.172C1635.38 216.107 1621.71 220.398 1608.61 224.662C1595.58 228.905 1582.06 231.706 1568.4 232.835C1563.26 233.26 1558.87 238.809 1562.12 243.786C1562.89 244.972 1563.65 246.17 1564.4 247.371C1563.14 247.24 1561.89 247.105 1560.63 246.978C1556.5 246.562 1552.37 250.973 1552.61 254.997C1552.77 257.528 1553.04 260.029 1553.44 262.5C1551.87 262.467 1550.31 262.703 1548.79 263.342C1541.14 266.575 1541.67 275.694 1542.24 282.632C1543.04 292.26 1546.64 302.458 1553.32 309.664C1548.33 314.849 1544.8 321.041 1542.69 328.395C1541.16 333.765 1540.31 339.485 1540.73 345.075L1540.86 346.749C1541.38 352.815 1542.42 359.531 1546.78 363.895C1549.02 366.145 1551.78 366.965 1554.41 366.705C1552.82 380.685 1551.8 394.745 1550.84 408.755L1550.39 415.451C1548.25 447.831 1546.64 480.422 1547.06 512.855C1547.45 543.165 1553.44 572.585 1572.03 597.195C1588.96 619.605 1613.27 636.125 1640.77 642.405C1655.59 645.795 1670.72 646.035 1685.72 643.875C1692.99 642.825 1700.31 641.215 1707.21 638.675C1714.85 635.855 1720.34 631.705 1725.48 625.485C1727.91 622.535 1726.74 616.255 1721.9 616.845C1714.58 617.733 1707.9 618.803 1700.88 620.968L1699.87 621.285C1692.88 623.525 1685.64 625.195 1678.33 625.905C1663.36 627.355 1648.16 625.895 1633.82 621.355C1610.47 613.955 1590.36 597.465 1577.47 576.745C1562.17 552.185 1560.44 524.305 1560.66 496.065C1560.9 465.077 1561.91 434.07 1563.55 403.114L1563.83 397.955C1564.7 382.025 1565.54 366.085 1566.28 350.145C1566.51 345.145 1566.86 340.105 1567.49 335.115C1573.26 331.735 1578.43 327.075 1581.8 321.325C1588.57 324.125 1595.69 326.145 1602.24 327.755C1617.42 331.487 1633.17 332.393 1648.61 330.056C1652.78 331.777 1657.03 333.29 1661.34 334.592C1662.51 335.109 1663.67 335.617 1664.84 336.115C1675.24 340.565 1685.79 344.335 1696.77 347.095L1699.47 347.768C1705.25 349.192 1711.52 350.595 1717.67 351.035C1718.68 351.425 1719.77 351.755 1720.96 352.045C1726.56 353.405 1732.37 353.835 1738.11 353.355C1743.7 352.885 1747.74 347.235 1744.66 341.945C1742.41 338.085 1740.14 334.235 1737.85 330.395C1745.82 333.715 1754.05 336.475 1762.35 338.815C1770.73 341.175 1779.23 343.165 1787.74 344.995C1792.29 345.965 1796.86 346.825 1801.4 347.795C1804.65 348.485 1809.64 348.845 1812.29 350.985C1815.22 353.335 1816.05 358.815 1817.16 362.195C1818.62 366.585 1819.99 370.995 1821.24 375.455C1823.73 384.355 1825.77 393.385 1827.35 402.505C1828.93 411.635 1829.99 420.855 1830.58 430.105C1831.17 439.345 1830.91 448.645 1831.86 457.845C1832.37 462.725 1837.61 465.235 1841.48 461.825C1841.93 461.425 1842.39 461.021 1842.84 460.612L1843.52 459.995C1846.83 456.995 1850.04 453.815 1852.69 450.235C1853.17 449.575 1853.63 448.885 1854.06 448.185C1854.13 448.185 1854.19 448.165 1854.26 448.115L1854.99 447.562C1863.08 441.543 1876.59 433.694 1884.48 443.695C1886.99 446.881 1888.28 450.938 1889.35 454.851L1891.22 461.856C1892.43 466.428 1893.57 471.026 1894.24 475.705C1895.75 486.185 1894.99 498.265 1887.78 506.665C1884.9 510.025 1880.93 512.425 1876.5 513.055C1874.03 513.395 1871.59 512.975 1869.14 512.665C1866.65 512.355 1864.25 512.855 1861.76 512.615C1857.8 512.225 1856.07 516.965 1857.55 519.945C1858.35 521.545 1859.29 522.925 1860.36 524.095C1859.5 524.835 1858.68 525.635 1857.89 526.475C1855.55 527.225 1853.45 528.835 1851.88 530.965C1850.61 532.685 1849.95 534.555 1849.84 536.525C1849.7 537.015 1849.58 537.515 1849.47 538.025L1847.32 541.507C1846.85 542.271 1846.38 543.025 1845.91 543.765C1840.45 552.365 1834.39 559.645 1826.86 566.505C1819.61 573.105 1811.74 579.015 1804.93 586.095L1804.13 586.936C1797.78 593.627 1791.08 601.726 1793.57 611.455C1794.21 613.955 1797.7 615.755 1799.98 614.065C1807.31 608.625 1811 600.005 1817.22 593.405C1823.62 586.605 1830.71 580.495 1837.13 573.715C1843.2 567.315 1847.99 560.065 1851.6 552.085C1853.04 553.675 1855.14 554.805 1858.05 555.245C1863.05 555.995 1867.71 553.065 1869.89 548.735C1871.29 549.355 1872.72 549.915 1874.16 550.355C1881.74 552.675 1886.51 544.245 1883.65 538.015C1882.12 534.675 1880.21 531.775 1877.84 529.335C1885.25 528.315 1892.79 524.485 1897.66 519.705C1909.88 507.695 1911.56 489.645 1908.81 473.595C1907.35 465.085 1904.83 456.475 1901.56 448.485C1900.99 447.095 1900.38 445.695 1899.71 444.315C1900.08 444.305 1900.46 444.145 1900.7 443.835C1902.91 440.815 1905.6 438.345 1907.24 434.965C1908.75 431.865 1910.43 428.725 1911.62 425.495C1914.07 418.885 1915.27 411.425 1916.07 404.435C1917.72 390.125 1917.08 375.905 1914.89 361.685C1911.16 337.465 1902.15 314.287 1888.88 293.949C1889.6 293.569 1890.3 293.111 1890.94 292.569L1891.26 292.291L1891.78 291.823C1895.57 288.396 1895.24 281.973 1891.78 278.502L1890.69 277.407C1889.3 276.032 1888.11 274.943 1885.87 273.446C1885.54 273.225 1885.21 273.017 1884.87 272.823C1886.04 270.661 1886.44 268.133 1885.63 265.344C1882.79 255.628 1868.81 255.972 1859.95 260.209C1850.14 251.46 1839.27 243.865 1827.49 237.715C1799.43 223.075 1767.7 212.865 1736.72 206.625ZM1881.77 462.525C1876.53 460.815 1869.57 464.405 1864.86 466.565C1858.89 469.305 1853.81 473.355 1848.89 477.635C1846.44 479.775 1846 483.275 1846.61 486.265C1846.67 486.565 1846.73 486.875 1846.8 487.185C1847.45 490.375 1851.01 492.885 1854.16 492.795C1860.75 492.615 1863.89 486.925 1867.62 482.105C1868.06 482.885 1868.61 483.605 1869.29 484.145L1869.75 484.505C1871.3 485.684 1873.01 486.626 1875.05 486.535C1876.5 486.465 1877.89 486.095 1879.17 485.425C1882.37 483.735 1883.78 479.595 1882.91 476.225C1882.37 474.105 1881.13 472.445 1879.51 471.295L1880.11 470.882C1881.41 469.983 1882.59 469.035 1883.5 467.636L1883.71 467.305H1883.63C1884.63 465.585 1883.98 463.245 1881.77 462.525Z" fill="black"/>
<path fill-rule="evenodd" clip-rule="evenodd" d="M1669.41 568.927C1676.14 566.184 1682.13 561.61 1686.52 555.766C1688.04 553.735 1688.44 551.59 1688.12 549.628C1687.76 547.421 1686.45 545.422 1684.67 544.081C1682.89 542.735 1680.65 542.072 1678.5 542.41C1676.62 542.704 1674.75 543.731 1673.27 545.862L1672.96 546.288C1670.36 549.815 1666.96 552.709 1663.09 554.574C1659.36 556.372 1655.19 557.211 1650.87 556.723C1642.64 555.794 1636.98 551.346 1630.95 545.307C1630.2 544.544 1629.46 543.758 1628.71 542.959C1628.23 542.234 1627.57 541.769 1626.84 541.524C1626.03 541.253 1625.11 541.269 1624.27 541.562C1623.46 541.845 1622.74 542.381 1622.25 543.095C1621.79 543.773 1621.53 544.61 1621.61 545.574C1622.17 551.833 1625.44 557.419 1630.09 561.805C1635.25 566.677 1642.09 570.047 1648.53 571.229C1655.63 572.531 1662.86 571.598 1669.41 568.927V568.927ZM1645.19 472.367C1637.63 476.957 1626.13 487.66 1634.25 499.04C1643.81 509.073 1657.58 497.569 1664.37 492.366C1670.66 488.334 1677.72 498.704 1671.89 503.413C1622.86 539.708 1602.97 473.567 1641.37 466.97C1645.59 466.243 1647.16 470.947 1645.19 472.367ZM1733.04 430.146C1732.2 419.79 1716.43 417.438 1714.86 427.686C1713.46 436.866 1715.11 445.299 1719.24 453.564C1723.2 461.46 1733.13 457.777 1733.88 450.587C1734.88 440.949 1733.56 436.589 1733.04 430.146ZM1612.97 425.561C1610.77 422.681 1607.6 420.715 1603.79 421.826C1591.91 425.299 1595.41 442.172 1599.59 450.385C1601.85 454.845 1609.19 455.976 1612.5 452.049C1617.9 445.645 1620.48 432.856 1613.62 426.548C1613.43 426.222 1613.23 425.893 1612.97 425.561ZM1719.41 384.83L1717.53 384.502C1711.73 383.497 1704.51 382.532 1700.4 387.201C1698.22 389.677 1697.47 394.279 1700.4 396.649C1705.55 400.819 1711.25 399.203 1717.42 399.556C1722.51 399.848 1727.4 400.69 1732.3 402.091C1743.05 405.164 1751.81 410.774 1760.99 416.934C1762.2 417.742 1763.43 416.201 1762.85 415.074C1757.55 404.691 1747.28 396.162 1736.99 390.963C1731.5 388.188 1725.49 385.886 1719.41 384.83ZM1623.81 380.179L1622.37 380.473C1606.73 383.742 1586.42 390.271 1579.01 405.631C1578.73 407.803 1579.03 408.268 1579.27 408.572L1579.35 408.673C1579.55 408.933 1579.71 409.291 1580.65 409.587C1580.91 409.525 1581.18 409.459 1581.44 409.389C1584.84 408.499 1587.52 407.274 1590.12 406.002L1592.94 404.613C1596.21 403.01 1599.51 401.465 1603.01 400.324C1610.47 397.89 1618.15 396.175 1625.94 395.26C1627.63 395.061 1629.26 394.491 1630.54 393.514C1631.76 392.587 1632.69 391.302 1633.11 389.595C1633.66 387.386 1633.5 385.714 1632.32 383.721C1631.43 382.224 1630.15 381.187 1628.69 380.591C1627.2 379.984 1625.5 379.841 1623.81 380.179Z" fill="black"/>
<path fill-rule="evenodd" clip-rule="evenodd" d="M1555.69 475.458C1567.83 488.003 1588.1 491.603 1604.25 484.875C1645.73 467.546 1625.43 413.496 1593.44 398.981C1589.44 397.985 1584.11 395.622 1579.24 395.086C1578.8 394.87 1577.84 395.495 1576.68 394.904C1541.41 398.842 1533.38 453.594 1555.69 475.458M1689.47 478.669C1703.08 496.73 1728.4 502.302 1749.08 493.906C1789.95 477.814 1775.45 429.885 1747.5 411.095C1688.44 388.904 1664.05 445.368 1689.47 478.669M1778.05 438.651C1778.08 438.633 1778.12 438.624 1778.16 438.606C1777.95 438.511 1777.73 438.416 1777.51 438.319C1777.58 438.502 1777.66 438.683 1777.73 438.866C1777.83 438.793 1777.93 438.708 1778.05 438.651M1527.58 419.128C1530.91 419.135 1535.73 419.683 1538.49 421.996C1545.29 399.043 1570.41 377.8 1592.26 393.29C1609.47 398.823 1622.23 411.094 1629.49 427.408C1642.57 419.626 1663.15 422.949 1674.49 433.24C1681.92 408.689 1700.21 400.092 1721.97 398.823C1745.73 394.932 1769.41 418.003 1776.79 436.511C1782.94 435.812 1792.12 433.857 1797.89 437.648C1835.4 427.812 1900.98 422.389 1908.6 427.854C1914.04 429.939 1917.02 442.765 1909.43 443.457C1902.81 442.518 1910.2 434.059 1903.53 433.136C1868.01 430.934 1833.52 438.088 1798.38 441.09C1795.24 445.311 1785.1 446.723 1779.69 445.027C1788.21 476.423 1769.82 497.783 1742.27 504.181C1699.6 513.982 1662.48 475.814 1673.63 436.114C1660.71 429.684 1645.84 429.96 1631.76 433.347C1655.29 519.937 1515.83 516.052 1537.61 424.963C1523.12 432.173 1519.97 420.583 1527.58 419.128" fill="black"/>
</svg>
