<svg width="200" height="200" viewBox="0 0 200 200" fill="none" xmlns="http://www.w3.org/2000/svg">
<rect width="200" height="200" fill="#E5E7EB"/>
<g clip-path="url(#clip0_5_17)">
<path d="M68.0986 139.38H63.2255C63.0532 131.154 62.5786 123.421 61.8027 116.175H61.7594L54.34 139.38H50.6298L43.2547 116.175H43.2123C42.6652 123.132 42.3206 130.867 42.1775 139.38H37.7356C38.0219 129.028 38.7413 119.323 39.8911 110.265H45.9309L52.9604 131.658H53.0038L60.0766 110.265H65.8556C67.1212 120.875 67.8689 130.581 68.0986 139.38ZM89.2324 117.899C87.2483 128.666 84.6305 136.489 81.3817 141.372C78.8506 145.132 76.0774 147.013 73.0574 147.013C72.2523 147.013 71.2589 146.77 70.0818 146.288V143.692C70.6571 143.775 71.3323 143.822 72.1082 143.822C73.5189 143.822 74.6526 143.434 75.5171 142.656C76.551 141.709 77.068 140.644 77.068 139.466C77.068 138.658 76.665 137.006 75.8608 134.505L70.5131 117.898H75.3005L79.1387 130.318C80.0013 133.139 80.361 135.108 80.2169 136.229C82.3159 130.623 83.782 124.511 84.6173 117.897H89.2324V117.899Z" fill="#5D87A1"/>
<path d="M154.099 139.38H140.256V110.265H144.913V135.796H154.099V139.38ZM136.633 140.083L131.281 137.442C131.755 137.052 132.209 136.63 132.618 136.141C134.893 133.469 136.027 129.517 136.027 124.282C136.027 114.65 132.248 109.831 124.685 109.831C120.977 109.831 118.084 111.054 116.015 113.499C113.742 116.174 112.607 120.112 112.607 125.318C112.607 130.436 113.613 134.19 115.625 136.572C117.466 138.729 120.241 139.809 123.953 139.809C125.337 139.809 126.607 139.64 127.764 139.298L134.733 143.355L136.633 140.083ZM119.294 133.554C118.115 131.657 117.526 128.612 117.526 124.413C117.526 117.082 119.753 113.413 124.211 113.413C126.542 113.413 128.25 114.29 129.343 116.042C130.52 117.941 131.112 120.959 131.112 125.1C131.112 132.491 128.883 136.187 124.427 136.187C122.096 136.188 120.387 135.313 119.294 133.554ZM110.578 131.31C110.578 133.779 109.672 135.804 107.862 137.391C106.051 138.971 103.621 139.763 100.577 139.763C97.7291 139.763 94.9681 138.853 92.2957 137.044L93.5471 134.543C95.8467 135.695 97.9287 136.268 99.7979 136.268C101.552 136.268 102.923 135.879 103.918 135.108C104.911 134.333 105.503 133.248 105.503 131.875C105.503 130.145 104.297 128.667 102.084 127.428C100.044 126.308 95.9625 123.965 95.9625 123.965C93.7505 122.353 92.6431 120.622 92.6431 117.771C92.6431 115.411 93.469 113.506 95.1216 112.057C96.7761 110.602 98.9108 109.877 101.528 109.877C104.23 109.877 106.687 110.601 108.9 112.034L107.778 114.535C105.885 113.731 104.017 113.329 102.174 113.329C100.681 113.329 99.5286 113.688 98.7272 114.408C97.9193 115.125 97.4211 116.044 97.4211 117.17C97.4211 118.891 98.6528 120.388 100.926 121.651C102.994 122.774 107.177 125.157 107.177 125.157C109.445 126.766 110.578 128.481 110.578 131.31Z" fill="#F8981D"/>
<path d="M159.945 100.513C157.129 100.441 154.949 100.725 153.12 101.499C152.591 101.71 151.751 101.71 151.678 102.377C151.963 102.66 151.996 103.115 152.244 103.505C152.666 104.209 153.401 105.155 154.073 105.649C154.81 106.214 155.55 106.773 156.326 107.265C157.694 108.112 159.245 108.604 160.579 109.448C161.355 109.939 162.128 110.573 162.905 111.102C163.288 111.383 163.533 111.84 164.029 112.016V111.909C163.78 111.592 163.71 111.135 163.466 110.782L162.409 109.764C161.388 108.393 160.12 107.196 158.752 106.213C157.625 105.437 155.162 104.382 154.705 103.084L154.634 103.013C155.408 102.94 156.326 102.66 157.061 102.444C158.258 102.129 159.35 102.2 160.578 101.885C161.143 101.743 161.703 101.566 162.27 101.392V101.075C161.633 100.441 161.179 99.5993 160.51 99.0004C158.719 97.4532 156.745 95.94 154.705 94.6734C153.613 93.9681 152.208 93.5142 151.045 92.9144C150.626 92.7025 149.92 92.598 149.673 92.2458C149.042 91.4718 148.687 90.4529 148.23 89.5367C147.213 87.6034 146.225 85.4583 145.347 83.414C144.712 82.0429 144.326 80.6737 143.552 79.4053C139.927 73.4257 135.99 69.8041 129.939 66.2493C128.638 65.5092 127.091 65.1937 125.438 64.8057L122.799 64.6664C122.236 64.4197 121.672 63.7501 121.18 63.4337C119.173 62.1681 114.004 59.4251 112.527 63.0467C111.576 65.3359 113.934 67.5865 114.744 68.7475C115.342 69.5536 116.117 70.4708 116.535 71.3861C116.783 71.984 116.852 72.6187 117.1 73.2506C117.663 74.7987 118.19 76.521 118.93 77.9655C119.316 78.7019 119.737 79.4759 120.23 80.1426C120.513 80.5325 121.004 80.7048 121.112 81.3404C120.621 82.041 120.582 83.0985 120.301 83.978C119.035 87.9528 119.53 92.8767 121.323 95.7978C121.885 96.6773 123.224 98.6133 125.015 97.8713C126.6 97.2385 126.249 95.2337 126.705 93.4756C126.81 93.0509 126.741 92.7722 126.952 92.4935V92.5622C127.442 93.5463 127.938 94.4945 128.392 95.4814C129.484 97.2037 131.384 98.9985 132.967 100.192C133.81 100.828 134.477 101.917 135.533 102.306V102.2H135.463C135.25 101.885 134.937 101.743 134.656 101.499C134.022 100.865 133.319 100.091 132.827 99.3883C131.352 97.4174 130.047 95.2356 128.889 92.9841C128.322 91.8918 127.833 90.6977 127.376 89.6073C127.164 89.1864 127.164 88.5517 126.81 88.3398C126.281 89.1129 125.51 89.7824 125.124 90.7297C124.454 92.2449 124.385 94.1084 124.136 96.0464L123.998 96.1142C122.877 95.8326 122.487 94.6734 122.062 93.6894C121.008 91.1902 120.831 87.1787 121.745 84.2953C121.99 83.558 123.049 81.2359 122.627 80.5334C122.415 79.8601 121.71 79.4769 121.324 78.9467C120.87 78.28 120.373 77.4363 120.057 76.6961C119.213 74.7271 118.788 72.5453 117.88 70.5772C117.455 69.66 116.718 68.7108 116.121 67.8661C115.45 66.9169 114.713 66.2484 114.183 65.1231C114.008 64.7361 113.762 64.1033 114.043 63.6823C114.112 63.3998 114.255 63.2944 114.536 63.2237C114.992 62.8386 116.294 63.3283 116.751 63.5401C118.055 64.0675 119.145 64.56 120.234 65.2982C120.726 65.6513 121.255 66.3199 121.886 66.496H122.627C123.75 66.7408 125.017 66.5638 126.074 66.8821C127.938 67.481 129.626 68.3596 131.14 69.3078C135.748 72.2298 139.547 76.3816 142.112 81.3404C142.533 82.1484 142.712 82.8885 143.097 83.7313C143.838 85.4564 144.754 87.2154 145.489 88.9039C146.229 90.5565 146.933 92.2439 147.988 93.6169C148.515 94.3551 150.63 94.7422 151.578 95.1292C152.28 95.4447 153.372 95.7253 154.005 96.1123C155.202 96.8496 156.394 97.6962 157.519 98.5069C158.079 98.9288 159.84 99.8083 159.945 100.513ZM124.062 69.9425C123.576 69.9375 123.092 69.997 122.622 70.1195V70.1902H122.69C122.973 70.7523 123.466 71.1422 123.817 71.6328C124.1 72.1969 124.346 72.7562 124.624 73.3193L124.692 73.2496C125.188 72.8984 125.435 72.3353 125.435 71.4906C125.221 71.242 125.188 70.9991 125.01 70.7523C124.803 70.4002 124.346 70.225 124.062 69.9425Z" fill="#5D87A1"/>
<path d="M163.295 139.375H164.024V135.808H162.931L162.039 138.242L161.07 135.808H160.017V139.375H160.706V136.661H160.744L161.759 139.375H162.284L163.295 136.661V139.375ZM157.424 139.375H158.195V136.413H159.205V135.807H156.372V136.413H157.422L157.424 139.375Z" fill="#F8981D"/>
</g>
<defs>
<clipPath id="clip0_5_17">
<rect width="180" height="180" fill="white" transform="translate(13 11)"/>
</clipPath>
</defs>
</svg>
