<svg width="200" height="200" viewBox="0 0 200 200" fill="none" xmlns="http://www.w3.org/2000/svg">
<rect width="200" height="200" fill="#E5E7EB"/>
<path d="M95.7429 35.035C95.4633 35.0604 94.5738 35.1493 93.7732 35.2129C75.3089 36.8773 58.0137 46.8387 47.0596 62.1493C40.9599 70.6622 37.0587 80.3187 35.5846 90.5469C35.0635 94.1172 35 95.1718 35 100.013C35 104.854 35.0635 105.908 35.5846 109.479C39.1173 133.887 56.4888 154.394 80.0489 161.992C84.2678 163.351 88.7155 164.279 93.7732 164.838C95.7429 165.054 104.257 165.054 106.227 164.838C114.957 163.872 122.353 161.712 129.647 157.99C130.765 157.418 130.981 157.265 130.829 157.138C130.727 157.062 125.962 150.671 120.243 142.946L109.848 128.906L96.8231 109.631C89.6559 99.0344 83.7595 90.369 83.7087 90.369C83.6579 90.3563 83.607 98.92 83.5816 109.377C83.5435 127.686 83.5308 128.423 83.3021 128.855C82.9717 129.478 82.7175 129.732 82.1838 130.011C81.7771 130.215 81.4213 130.253 79.5024 130.253H77.304L76.7195 129.884C76.3382 129.643 76.0587 129.325 75.868 128.957L75.6012 128.385L75.6266 102.91L75.6647 77.4217L76.0587 76.9262C76.262 76.6594 76.694 76.3163 76.999 76.1511C77.52 75.897 77.7234 75.8716 79.9218 75.8716C82.5142 75.8716 82.9462 75.9732 83.6197 76.7102C83.8104 76.9135 90.8631 87.5356 99.3011 100.33C107.739 113.125 119.278 130.596 124.945 139.172L135.239 154.762L135.76 154.419C140.372 151.421 145.252 147.151 149.115 142.704C157.337 133.264 162.636 121.752 164.415 109.479C164.936 105.908 165 104.854 165 100.013C165 95.1718 164.936 94.1172 164.415 90.5469C160.883 66.1389 143.511 45.6317 119.951 38.0336C115.796 36.6867 111.373 35.7592 106.417 35.2002C105.197 35.0731 96.7977 34.9333 95.7429 35.035ZM122.353 74.3469C122.963 74.6518 123.458 75.2363 123.636 75.8462C123.738 76.1765 123.763 83.241 123.738 99.1614L123.7 122.007L119.672 115.832L115.63 109.656V93.0499C115.63 82.3135 115.681 76.2782 115.758 75.986C115.961 75.2744 116.406 74.7154 117.016 74.385C117.537 74.1182 117.727 74.0928 119.722 74.0928C121.603 74.0928 121.934 74.1182 122.353 74.3469Z" fill="black"/>
</svg>
