<svg width="200" height="200" viewBox="0 0 200 200" fill="none" xmlns="http://www.w3.org/2000/svg">
<rect width="200" height="200" fill="#E5E7EB"/>
<path d="M100 165.625C136.244 165.625 165.625 136.244 165.625 100C165.625 63.7563 136.244 34.375 100 34.375C63.7563 34.375 34.375 63.7563 34.375 100C34.375 136.244 63.7563 165.625 100 165.625Z" fill="#8892BF"/>
<path d="M92.6838 71.875H100.559L98.3331 83.7072H105.409C109.29 83.7902 112.181 84.6573 114.084 86.3092C116.024 87.9606 116.595 91.1003 115.796 95.7255L111.972 116.354H103.983L107.635 96.6545C108.015 94.5892 107.901 93.1234 107.293 92.2562C106.684 91.3891 105.372 90.9555 103.355 90.9555L97.0206 90.8936L92.3411 116.354H84.4661L92.6838 71.875Z" fill="white"/>
<path fill-rule="evenodd" clip-rule="evenodd" d="M56.5981 83.7077H71.8919C76.3806 83.7484 79.6337 85.1533 81.6503 87.9198C83.6669 90.6869 84.3325 94.4655 83.6477 99.2566C83.3819 101.446 82.7917 103.593 81.8786 105.7C81.0034 107.806 79.7866 109.705 78.2266 111.399C76.3239 113.546 74.2886 114.909 72.1202 115.488C69.9517 116.066 67.7067 116.355 65.3863 116.355H58.5383L56.3698 128.125H48.4375L56.5981 83.7077ZM59.8509 109.354L63.2635 90.8317H64.4162C64.8351 90.8317 65.2722 90.8106 65.7287 90.7698C68.7727 90.7286 71.3019 91.0384 73.3187 91.6989C75.3728 92.3594 76.0577 94.8583 75.3728 99.1947C74.5366 104.358 72.8997 107.372 70.4653 108.239C68.0308 109.066 64.9869 109.458 61.3346 109.416H60.5357C60.3074 109.416 60.0791 109.395 59.8509 109.354Z" fill="white"/>
<path fill-rule="evenodd" clip-rule="evenodd" d="M139.546 83.7077H124.252L116.092 128.125H124.024L126.193 116.355H133.041C135.361 116.355 137.606 116.066 139.774 115.488C141.943 114.909 143.978 113.546 145.881 111.399C147.441 109.705 148.658 107.806 149.533 105.7C150.446 103.593 151.036 101.446 151.302 99.2566C151.987 94.4655 151.322 90.6869 149.305 87.9198C147.288 85.1533 144.035 83.7484 139.546 83.7077ZM130.918 90.8317L127.505 109.354C127.734 109.395 127.962 109.416 128.19 109.416H128.989C132.641 109.458 135.685 109.066 138.12 108.239C140.554 107.372 142.191 104.358 143.028 99.1947C143.712 94.8583 143.028 92.3594 140.973 91.6989C138.956 91.0384 136.427 90.7286 133.383 90.7698C132.926 90.8106 132.49 90.8317 132.07 90.8317H130.918Z" fill="white"/>
</svg>
