<svg width="200" height="200" viewBox="0 0 200 200" fill="none" xmlns="http://www.w3.org/2000/svg">
<rect width="200" height="200" fill="#E5E7EB"/>
<g clip-path="url(#clip0_5_47)">
<path d="M137.206 134.208C138.189 126.331 137.894 125.176 143.997 126.452L145.546 126.583C150.239 126.788 156.378 125.857 159.984 124.247C167.747 120.784 172.351 115.002 164.696 116.521C147.234 119.984 146.034 114.3 146.034 114.3C164.472 88.0004 172.18 54.6153 165.527 46.4433C147.381 24.1531 115.97 34.6936 115.444 34.9673L115.277 34.997C111.827 34.3088 107.966 33.8976 103.628 33.8302C95.7262 33.7054 89.7303 35.8217 85.1821 39.138C85.1821 39.138 29.1469 16.9449 31.7537 67.0481C32.3082 77.7065 47.6459 147.698 65.9391 126.557C72.6252 118.827 79.0866 112.291 79.0866 112.291C82.2951 114.34 86.1365 115.385 90.1653 115.01L90.4767 114.754C90.3792 115.714 90.4222 116.653 90.6014 117.764C85.8896 122.826 87.2741 123.715 77.8524 125.579C68.3203 127.468 73.9204 130.83 77.5757 131.709C82.0083 132.775 92.2626 134.284 99.193 124.96L98.917 126.023C100.766 127.445 100.641 136.242 100.903 142.528C101.165 148.813 101.603 154.679 102.936 158.137C104.269 161.595 105.841 170.502 118.224 167.951C128.572 165.819 136.484 162.751 137.206 134.208Z" fill="black" stroke="black" stroke-width="13"/>
<path d="M164.698 116.521C147.234 119.983 146.034 114.299 146.034 114.299C164.472 87.998 172.18 54.6123 165.528 46.4413C147.382 24.1524 115.97 34.6936 115.446 34.9673L115.277 34.9963C111.827 34.3078 107.966 33.8976 103.626 33.8295C95.7241 33.7051 89.7303 35.821 85.1821 39.1367C85.1821 39.1367 29.1458 16.9446 31.752 67.0474C32.3064 77.7065 47.6439 147.698 65.9377 126.557C72.6241 118.827 79.0845 112.291 79.0845 112.291C82.2934 114.34 86.1348 115.385 90.1619 115.01L90.4747 114.754C90.3775 115.714 90.4219 116.653 90.6 117.764C85.8872 122.826 87.2721 123.715 77.851 125.579C68.3182 127.468 73.9184 130.83 77.5747 131.709C82.0073 132.775 92.2622 134.284 99.1913 124.96L98.9149 126.023C100.762 127.445 102.058 135.272 101.841 142.366C101.624 149.461 101.478 154.332 102.933 158.137C104.388 161.942 105.838 170.502 118.223 167.951C128.572 165.819 133.935 160.294 134.681 151.079C135.21 144.527 136.408 145.496 136.484 139.638L137.445 136.865C138.553 127.984 137.621 125.119 143.996 126.451L145.546 126.582C150.238 126.787 156.38 125.857 159.985 124.246C167.747 120.783 172.35 115.001 164.697 116.521H164.698Z" fill="#336791"/>
<path d="M99.9412 121.611C99.4603 138.137 100.062 154.778 101.744 158.822C103.427 162.866 107.029 170.732 119.415 168.182C129.762 166.049 133.527 161.922 135.161 152.813C136.364 146.11 138.684 127.497 138.982 123.683" stroke="white" stroke-width="5" stroke-linecap="round" stroke-linejoin="round"/>
<path d="M85.0957 38.7676C85.0957 38.7676 29.0212 16.7353 31.6281 66.8382C32.1825 77.4972 47.5209 147.491 65.8145 126.35C72.4995 118.618 78.5454 112.554 78.5454 112.554" stroke="white" stroke-width="5" stroke-linecap="round" stroke-linejoin="round"/>
<path d="M115.384 34.7463C113.443 35.3314 146.576 23.1025 165.406 46.2327C172.057 54.404 164.35 87.7898 145.912 114.092" stroke="white" stroke-width="5" stroke-linecap="round" stroke-linejoin="round"/>
<path d="M145.911 114.092C145.911 114.092 147.113 119.778 164.576 116.312C172.228 114.793 167.623 120.575 159.863 124.04C153.494 126.882 139.216 127.61 138.982 123.683C138.382 113.553 146.497 116.63 145.911 114.092ZM145.911 114.092C145.382 111.806 141.753 109.562 139.352 103.967C137.257 99.0833 110.609 61.6322 146.742 67.1943C148.066 66.931 137.318 34.1533 103.502 33.6203C69.6934 33.0873 70.8025 73.5898 70.8025 73.5898" stroke="white" stroke-width="5" stroke-linecap="round" stroke-linejoin="bevel"/>
<path d="M90.4767 117.556C85.7633 122.618 87.1495 123.507 77.7278 125.372C68.195 127.261 73.7958 130.622 77.4511 131.501C81.8837 132.567 92.1386 134.077 99.0677 124.75C101.178 121.91 99.0552 117.379 96.1567 116.223C94.7562 115.666 92.8836 114.967 90.4767 117.556Z" stroke="white" stroke-width="5" stroke-linecap="round" stroke-linejoin="round"/>
<path d="M90.1681 117.468C89.6932 114.492 91.1853 110.951 92.7844 106.808C95.1874 100.591 100.732 94.3742 96.2966 74.6554C92.9906 59.9611 70.8161 71.5974 70.8022 73.5898C70.7887 75.5816 71.8052 83.6888 70.4318 93.1297C68.6397 105.449 78.586 115.868 90.0393 114.802" stroke="white" stroke-width="5" stroke-linecap="round" stroke-linejoin="round"/>
<path d="M84.8919 73.2911C84.7919 73.9716 86.1879 75.7875 88.008 76.0301C89.8251 76.2737 91.3804 74.8547 91.479 74.1748C91.5776 73.4943 90.1834 72.7448 88.3625 72.5011C86.5444 72.2572 84.9884 72.6123 84.8922 73.2911H84.8919Z" fill="white"/>
<path d="M140.238 71.9037C140.337 72.5842 138.943 74.4001 137.122 74.6427C135.304 74.8864 133.748 73.4673 133.649 72.7875C133.553 72.107 134.947 71.3574 136.766 71.1137C138.585 70.8701 140.14 71.2249 140.238 71.9041V71.9037Z" fill="white"/>
<path d="M146.742 67.1943C147.042 72.5322 145.546 76.1679 145.358 81.8502C145.079 90.1096 149.454 99.5632 142.862 109.028" stroke="white" stroke-width="5" stroke-linecap="round" stroke-linejoin="round"/>
</g>
<defs>
<clipPath id="clip0_5_47">
<rect width="150" height="148.643" fill="white" transform="translate(25 26)"/>
</clipPath>
</defs>
</svg>
