<svg width="200" height="200" viewBox="0 0 200 200" fill="none" xmlns="http://www.w3.org/2000/svg">
<rect width="200" height="200" fill="#E5E7EB"/>
<path d="M111.059 161.472C107.78 165.602 101.131 163.339 101.052 158.067L99.8965 80.9435H151.754C161.147 80.9435 166.385 91.7922 160.545 99.1484L111.059 161.472Z" fill="url(#paint0_linear_5_67)"/>
<path d="M111.059 161.472C107.78 165.602 101.131 163.339 101.052 158.067L99.8965 80.9435H151.754C161.147 80.9435 166.385 91.7922 160.545 99.1484L111.059 161.472Z" fill="url(#paint1_linear_5_67)" fill-opacity="0.2"/>
<path d="M89.969 37.375C93.2483 33.245 99.8973 35.508 99.9764 40.781L100.483 117.904H49.2742C39.8811 117.904 34.6425 107.055 40.4834 99.699L89.969 37.375Z" fill="#3ECF8E"/>
<defs>
<linearGradient id="paint0_linear_5_67" x1="99.8965" y1="98.0436" x2="145.986" y2="117.373" gradientUnits="userSpaceOnUse">
<stop stop-color="#249361"/>
<stop offset="1" stop-color="#3ECF8E"/>
</linearGradient>
<linearGradient id="paint1_linear_5_67" x1="79.4631" y1="70.0665" x2="100.482" y2="109.634" gradientUnits="userSpaceOnUse">
<stop/>
<stop offset="1" stop-opacity="0"/>
</linearGradient>
</defs>
</svg>
