<svg width="200" height="200" viewBox="0 0 200 200" fill="none" xmlns="http://www.w3.org/2000/svg">
<rect width="200" height="200" fill="#E5E7EB"/>
<path d="M69.375 89.0921C73.4583 71.8991 83.6667 63.3026 100 63.3026C124.5 63.3026 127.563 82.6447 139.813 85.8684C147.979 88.0176 155.125 84.7939 161.25 76.1974C157.167 93.3904 146.958 101.987 130.625 101.987C106.125 101.987 103.062 82.6448 90.8125 79.4211C82.6458 77.2719 75.5 80.4956 69.375 89.0921ZM38.75 127.776C42.8333 110.583 53.0417 101.987 69.375 101.987C93.875 101.987 96.9375 121.329 109.188 124.553C117.354 126.702 124.5 123.478 130.625 114.882C126.542 132.075 116.333 140.671 100 140.671C75.5 140.671 72.4375 121.329 60.1875 118.105C52.0208 115.956 44.875 119.18 38.75 127.776Z" fill="#44A8B3"/>
</svg>
