<svg width="200" height="200" viewBox="0 0 200 200" fill="none" xmlns="http://www.w3.org/2000/svg">
<rect width="200" height="200" fill="#E5E7EB"/>
<path d="M16.25 62.5L60 137.5L103.75 62.5H86.5625L60 107.812L33.4375 62.5H16.25Z" fill="#41B883"/>
<path d="M33.4375 62.5L60 107.812L86.5625 62.5H70.9375L60.2041 81.2894L49.0625 62.5H33.4375Z" fill="#35495E"/>
<g clip-path="url(#clip0_3_67)">
<path d="M146.101 133.333H183.275C184.456 133.333 185.616 133.025 186.638 132.44C187.661 131.855 188.51 131.013 189.1 130C189.69 128.986 190.001 127.837 190 126.666C189.999 125.496 189.688 124.347 189.097 123.334L164.132 80.4766C163.542 79.4632 162.693 78.6217 161.671 78.0366C160.648 77.4516 159.489 77.1435 158.308 77.1435C157.128 77.1435 155.968 77.4516 154.946 78.0366C153.923 78.6217 153.074 79.4632 152.484 80.4766L146.101 91.4421L133.62 69.9992C133.03 68.986 132.18 68.1446 131.158 67.5596C130.135 66.9747 128.975 66.6667 127.795 66.6667C126.614 66.6667 125.454 66.9747 124.431 67.5596C123.409 68.1446 122.56 68.986 121.969 69.9992L90.9029 123.334C90.3119 124.347 90.0005 125.496 90 126.666C89.9995 127.837 90.3099 128.986 90.9 130C91.4901 131.013 92.3391 131.855 93.3617 132.44C94.3842 133.025 95.5441 133.333 96.7249 133.333H120.06C129.305 133.333 136.124 129.308 140.815 121.456L152.205 101.905L158.306 91.4421L176.616 122.87H152.205L146.101 133.333ZM119.679 122.86L103.395 122.856L127.805 80.954L139.986 101.905L131.83 115.908C128.715 121.003 125.175 122.86 119.679 122.86Z" fill="#00DC82"/>
</g>
<defs>
<clipPath id="clip0_3_67">
<rect width="100" height="100" fill="white" transform="translate(90 50)"/>
</clipPath>
</defs>
</svg>
